<?xml version="1.0" standalone="no"?><!DOCTYPE svg PUBLIC "-//W3C//DTD SVG 1.1//EN" "http://www.w3.org/Graphics/SVG/1.1/DTD/svg11.dtd"><svg t="1733382324109" class="icon" viewBox="0 0 1026 1024" version="1.1" xmlns="http://www.w3.org/2000/svg" p-id="6504" xmlns:xlink="http://www.w3.org/1999/xlink" width="200.390625" height="200"><path d="M512 0C229.298834 0 0 229.1742 0 511.997957c0 282.827843 229.298834 512.002043 512 512.002043 282.699123 0 511.997957-229.1742 511.997957-512.002043C1023.997957 229.1742 794.699123 0 512 0z m328.13718 638.848163c0 105.063885-86.019498 191.079297-191.083383 191.079296h-90.99666a192.323587 192.323587 0 0 1-32.986979 2.862482h-110.91348c-105.934275 0-192.574897-86.638578-192.574897-192.574897V406.809438c0-105.934275 86.640622-192.574897 192.574897-192.574896h110.91348c105.936319 0 192.574897 86.640622 192.574897 192.574896v46.682347h69.958139c28.88225 0 52.533986 23.651735 52.533986 52.5299v132.826478z" fill="#0D3777" p-id="6505"></path><path d="M558.431037 456.354267h-169.668919c-15.934682 0-28.880207-13.072201-28.880207-28.880208v-6.348129c0-15.934682 13.070158-28.880207 28.880207-28.880207h169.668919c15.934682 0 28.878164 13.072201 28.878164 28.880207v6.348129c0.126677 15.808006-12.945525 28.880207-28.878164 28.880208z m90.50017 212.86766H391.624599c-15.934682 0-28.880207-13.070158-28.880207-28.880207v-6.350172c0-15.932639 13.070158-28.880207 28.880207-28.880207h257.179931c15.934682 0 28.88225 13.070158 28.88225 28.880207v6.350172c0.12259 15.932639-12.822935 28.880207-28.755573 28.880207z" fill="#0D3777" p-id="6506"></path></svg>