<?xml version="1.0" standalone="no"?><!DOCTYPE svg PUBLIC "-//W3C//DTD SVG 1.1//EN" "http://www.w3.org/Graphics/SVG/1.1/DTD/svg11.dtd"><svg t="1733378393646" class="icon" viewBox="0 0 1024 1024" version="1.1" xmlns="http://www.w3.org/2000/svg" p-id="6696" xmlns:xlink="http://www.w3.org/1999/xlink" width="200" height="200"><path d="M512 0c283.2 0 512 228.8 512 512S795.2 1024 512 1024 0 795.2 0 512 228.8 0 512 0z m294.4 553.6c0-108.8-57.6-160-136-160-62.4 0-91.2 35.2-107.2 59.2v0-49.6h-118.4c1.6 33.6 0 355.2 0 355.2h118.4V558.4c0-11.2 1.6-20.8 3.2-28.8 8-20.8 27.2-43.2 60.8-43.2 43.2 0 59.2 32 59.2 80v190.4h118.4V553.6zM321.6 230.4c-40 0-67.2 27.2-67.2 60.8 0 33.6 25.6 60.8 65.6 60.8 41.6 0 67.2-27.2 67.2-60.8 0-35.2-25.6-60.8-65.6-60.8z m-59.2 526.4h118.4V401.6h-118.4v355.2z" fill="#01577E" p-id="6697"></path></svg>